<svg xmlns="http://www.w3.org/2000/svg" xmlns:xlink="http://www.w3.org/1999/xlink" width="48" height="48" viewBox="0 0 48 48"><path fill="#795548" d="M20.011,34.191c0.09-1.475,0.259-2.741,0.456-4.084c0.199-1.321,0.439-2.631,0.72-3.93c0.563-2.597,1.287-5.156,2.229-7.636c0.945-2.475,2.111-4.877,3.602-7.053c1.486-2.17,3.326-4.11,5.488-5.465C28.799,9.207,22.958,18.334,26,30.002c0,0,0.816,2.803,1.003,3.855c0.339,1.918-0.941,3.748-2.86,4.088c-1.919,0.34-3.75-0.941-4.089-2.859c-0.048-0.274-0.064-0.547-0.049-0.813L20.011,34.191z"/><path fill="#FFCC80" d="M31.459,27c-4.043,0-3.52,2.535-3.421,3.191s0.786,2.48,0.935,3.317c0.531,3.001-1.479,5.874-4.481,6.405C24.172,39.971,23.847,40,23.524,40c-2.684,0-4.971-1.92-5.439-4.566c-0.074-0.424-0.1-0.852-0.075-1.291l0.005-0.073c0.099-1.619,0.288-2.988,0.475-4.261C18.631,28.869,18,27,15,27H6v15h36V27H31.459z"/></svg>